<svg width="512" height="512" viewBox="0 0 512 512" fill="none" xmlns="http://www.w3.org/2000/svg">
<g clip-path="url(#clip0_18_723)">
<path d="M16 288C7.2 288 0 295.2 0 304V336C0 344.8 7.2 352 16 352H128V288H16ZM505 105L407.1 7C402.6 2.5 396.5 0 390.1 0H384V128H512V121.9C512 115.6 509.5 109.5 505 105ZM352 136V0H152C138.7 0 128 10.7 128 24V288H256V222.8C256 208.5 273.3 201.4 283.4 211.5L379 308C385.6 314.7 385.6 325.4 379 332L283.3 428.4C273.2 438.5 255.9 431.4 255.9 417.1V352H128V488C128 501.3 138.7 512 152 512H488C501.3 512 512 501.3 512 488V160H376C362.8 160 352 149.2 352 136Z" fill="black"/>
</g>
<defs>
<clipPath id="clip0_18_723">
<rect width="512" height="512" fill="white"/>
</clipPath>
</defs>
</svg>
