<svg width="111" height="111" viewBox="0 0 111 111" fill="none" xmlns="http://www.w3.org/2000/svg">
<g clip-path="url(#clip0_99_862)">
<path d="M3.03516 0.432098C1.66934 0.887367 0.823828 1.75455 0.325195 3.20709C0.0433594 4.07428 0 9.45084 0 50.9241C0 82.8799 0.0650391 97.9257 0.238477 98.4893C0.520313 99.53 1.6043 100.766 2.6666 101.243C3.12188 101.459 14.1568 103.757 27.208 106.359C50.1234 110.933 50.9473 111.085 51.9662 110.825C53.2453 110.478 54.351 109.611 54.9363 108.484C55.3266 107.768 55.4133 107.161 55.4566 104.668L55.5434 101.676H67.5539C80.6701 101.676 80.4533 101.698 81.8191 100.419C82.166 100.094 82.6213 99.4432 82.8381 98.9663C83.2066 98.1425 83.25 97.2536 83.25 83.2485C83.25 69.3518 83.2066 68.3329 82.8381 67.5307C81.2772 64.1053 76.4426 63.9102 74.5781 67.2055L74.0361 68.1811L73.9711 80.3868L73.9061 92.5708H64.7139H55.5L55.4566 54.8915C55.3916 17.2772 55.3916 17.2339 54.9363 16.3883C54.0691 14.719 53.6139 14.5239 44.9854 11.9007C40.5844 10.5782 36.9205 9.45084 36.8772 9.40749C36.8338 9.36413 45.1371 9.32077 55.3482 9.32077H73.9061L73.9711 21.3964C74.0361 33.4286 74.0361 33.4936 74.5131 34.4042C76.3342 37.7645 81.017 37.7862 82.708 34.4042L83.25 33.2985V18.643C83.25 8.23679 83.185 3.74908 83.0115 3.22878C82.5996 2.01471 81.7324 1.06081 80.5617 0.518814L79.4561 -0.00149536H41.8418C5.50664 0.0201797 4.18418 0.0201797 3.03516 0.432098Z" fill="black"/>
<path d="M91.5966 32.4951C89.407 33.0371 87.9544 34.8148 87.9544 36.9611C87.9544 38.7605 88.4314 39.4976 91.8351 42.9447L95.022 46.1533L81.6023 46.2183L68.1826 46.2834L67.207 46.8254C64.4537 48.3863 63.9984 52.1586 66.3398 54.2832C66.7951 54.6951 67.5538 55.1287 68.0091 55.2588C68.5511 55.4105 73.4074 55.4973 82.0576 55.4973H95.2822L91.9869 58.7926C90.1874 60.6137 88.5398 62.4564 88.3447 62.8683C87.5642 64.3859 87.9761 66.684 89.2335 67.9414C90.6861 69.3939 92.5939 69.7191 94.415 68.8519C95.9326 68.1365 109.894 54.1314 110.545 52.6789C111.152 51.3564 111.108 50.1857 110.458 48.8633C109.699 47.3457 95.4123 33.1238 94.3066 32.7769C93.0925 32.4084 92.2904 32.3217 91.5966 32.4951Z" fill="black"/>
</g>
<defs>
<clipPath id="clip0_99_862">
<rect width="111" height="111" fill="white"/>
</clipPath>
</defs>
</svg>
