<svg width="354" height="442" viewBox="0 0 354 442" fill="none" xmlns="http://www.w3.org/2000/svg">
<path fill-rule="evenodd" clip-rule="evenodd" d="M180.457 200.01V328.738H329.109V180.254H274.267V245.958C274.267 247.865 272.719 249.411 270.81 249.411H238.756C236.847 249.411 235.299 247.865 235.299 245.958V180.254H229.023C228.151 180.614 211.356 200.301 180.457 200.01ZM181.527 114.678C180.02 113.516 179.742 111.354 180.905 109.849C182.068 108.344 184.233 108.066 185.739 109.228L186.84 110.073L191.502 104.028C192.665 102.523 194.83 102.245 196.337 103.407C197.843 104.568 198.121 106.731 196.958 108.236L190.197 117.003C189.034 118.508 186.869 118.786 185.363 117.623L181.527 114.678ZM187.836 131.135V133.388H167.927L163.168 109.166C162.924 107.498 161.485 106.217 159.747 106.217H149.711C145.159 106.217 145.159 113.123 149.711 113.123H156.906L164.755 153.071C165.077 154.719 166.524 155.862 168.144 155.86V155.863H211.935C213.495 155.863 214.813 154.831 215.244 153.414L226.87 121.927C227.702 119.667 225.981 117.292 223.629 117.292V117.288H208.464C211.084 109.745 209.096 101.461 203.547 95.9175C195.474 87.8538 182.387 87.8538 174.314 95.9175C161.664 108.554 170.071 130.208 187.836 131.135ZM204.418 124.193H218.677L215.281 133.388H194.723V130.342C198.511 129.24 201.857 127.083 204.418 124.193ZM179.204 120.233C187.896 128.915 202.689 122.639 202.689 110.517C202.689 98.3106 187.847 92.1668 179.204 100.8C173.832 106.166 173.832 114.868 179.204 120.233ZM153.945 154.192C158.497 154.192 158.497 161.098 153.945 161.098H140.402C135.85 161.098 135.85 154.192 140.402 154.192H153.945ZM153.945 139.81C158.497 139.81 158.497 146.716 153.945 146.716H150.146C145.594 146.716 145.594 139.81 150.146 139.81H153.945ZM149.833 124.55C154.384 124.55 154.384 131.456 149.833 131.456H137.445C132.893 131.456 132.893 124.55 137.445 124.55H149.833ZM194.723 140.267H212.741L209.533 148.956H194.723V140.267ZM187.836 148.956H170.985L169.278 140.267H187.836V148.956ZM201.829 169.894C197.43 169.894 196.956 162.988 202.147 162.988C206.547 162.988 207.02 169.894 201.829 169.894ZM177.678 169.894C173.278 169.894 172.805 162.988 177.996 162.988C182.396 162.988 182.869 169.894 177.678 169.894ZM235.085 173.348H332.566C334.475 173.348 336.023 174.894 336.023 176.801V332.191C336.023 334.098 334.475 335.645 332.566 335.645C228.855 335.645 125.145 335.645 21.4336 335.645C19.5246 335.645 17.9766 334.098 17.9766 332.191V21.4102C17.9766 19.5033 19.5246 17.957 21.4336 17.957H177C178.909 17.957 180.457 19.5033 180.457 21.4102V64.4976C218.241 64.1412 248.981 94.586 248.981 132.253C248.98 147.705 243.802 161.948 235.085 173.348ZM173.543 64.9147C157.847 66.6627 143.768 73.7602 133.176 84.3399C109.17 108.319 106.58 146.381 127.202 173.348C93.0985 173.348 58.9949 173.348 24.8906 173.348V24.8633H79.733V90.5673C79.733 92.4741 81.281 94.0204 83.19 94.0204H115.244C117.153 94.0204 118.701 92.4741 118.701 90.5673V24.8633H173.543V64.9147ZM133.263 180.254H118.701V245.958C118.701 247.865 117.153 249.411 115.244 249.411H83.19C81.281 249.411 79.733 247.865 79.733 245.958V180.254H24.8906V328.738H173.543V199.593C157.89 197.849 143.846 190.786 133.263 180.254ZM224.223 89.2226C248.014 112.987 248.014 151.52 224.223 175.284C200.432 199.049 161.856 199.049 138.064 175.284C114.273 151.52 114.273 112.987 138.064 89.2226C161.855 65.4582 200.432 65.4582 224.223 89.2226ZM111.787 24.8633H86.647V87.1142H111.787V24.8633ZM111.787 180.254H86.647V242.505H111.787V180.254ZM267.353 180.254V242.505H242.213V180.254H267.353Z" fill="black"/>
</svg>
