<svg width="341" height="427" viewBox="0 0 341 427" fill="none" xmlns="http://www.w3.org/2000/svg">
<path d="M161.883 290.901H101.577C98.8945 290.904 96.3227 291.973 94.4258 293.873C92.529 295.773 91.4622 298.349 91.4595 301.037V308.097C91.4595 308.913 91.7829 309.695 92.3584 310.271C92.934 310.848 93.7146 311.172 94.5285 311.172H168.935C169.749 311.172 170.529 310.848 171.105 310.271C171.68 309.695 172.004 308.913 172.004 308.097V301.037C172.001 298.349 170.934 295.772 169.036 293.872C167.139 291.971 164.566 290.903 161.883 290.901ZM165.862 305.023H97.5975V301.037C97.5993 299.98 98.0192 298.967 98.7651 298.22C99.511 297.472 100.522 297.052 101.577 297.05H161.883C162.938 297.052 163.949 297.472 164.695 298.22C165.441 298.967 165.86 299.98 165.862 301.037V305.023ZM94.9343 65.4009H58.8974C58.0835 65.4009 57.3029 65.7248 56.7273 66.3013C56.1518 66.8779 55.8284 67.6599 55.8284 68.4753V111.63C55.8284 112.445 56.1518 113.227 56.7273 113.804C57.3029 114.38 58.0835 114.704 58.8974 114.704H94.9241C95.738 114.704 96.5186 114.38 97.0942 113.804C97.6697 113.227 97.9931 112.445 97.9931 111.63V68.4787C97.9931 67.6633 97.6697 66.8813 97.0942 66.3048C96.5186 65.7282 95.738 65.4043 94.9241 65.4043L94.9343 65.4009ZM91.8653 108.552H61.9664V71.5497H91.8551L91.8653 108.552ZM65.015 89.2241C64.7808 88.8955 64.6135 88.5239 64.5226 88.1305C64.4318 87.7371 64.4191 87.3297 64.4855 86.9314C64.5518 86.5332 64.6958 86.1519 64.9092 85.8094C65.1227 85.4669 65.4013 85.1699 65.7294 84.9353C66.0574 84.7006 66.4283 84.5331 66.821 84.442C67.2137 84.351 67.6204 84.3384 68.0179 84.4048C68.4155 84.4713 68.7961 84.6155 69.138 84.8294C69.4799 85.0432 69.7764 85.3223 70.0106 85.6509L75.0574 92.7289L83.6438 77.6746C83.8437 77.324 84.1107 77.0163 84.4293 76.769C84.748 76.5218 85.1121 76.3399 85.5009 76.2336C85.8898 76.1273 86.2957 76.0988 86.6956 76.1497C87.0954 76.2006 87.4813 76.3299 87.8313 76.5302C88.1812 76.7305 88.4884 76.9979 88.7352 77.3171C88.982 77.6363 89.1636 78.0011 89.2697 78.3906C89.3758 78.7801 89.4042 79.1868 89.3534 79.5873C89.3026 79.9879 89.1736 80.3745 88.9736 80.725L78.0105 99.9469C77.7549 100.394 77.3911 100.77 76.9526 101.04C76.514 101.31 76.0147 101.465 75.5007 101.491H75.3439C74.8555 101.491 74.3743 101.374 73.9402 101.15C73.506 100.926 73.1315 100.601 72.8477 100.203L65.015 89.2241ZM110.313 71.0304C110.313 70.215 110.637 69.4331 111.212 68.8565C111.788 68.2799 112.568 67.956 113.382 67.956H138.391C138.794 67.956 139.193 68.0356 139.566 68.1901C139.938 68.3446 140.276 68.571 140.561 68.8565C140.846 69.142 141.072 69.4809 141.227 69.8539C141.381 70.2269 141.46 70.6267 141.46 71.0304C141.46 71.4342 141.381 71.8339 141.227 72.207C141.072 72.58 140.846 72.9189 140.561 73.2044C140.276 73.4898 139.938 73.7163 139.566 73.8708C139.193 74.0253 138.794 74.1048 138.391 74.1048H113.382C112.568 74.1048 111.788 73.7809 111.212 73.2044C110.637 72.6278 110.313 71.8458 110.313 71.0304ZM110.313 88.6126C110.313 87.7972 110.637 87.0152 111.212 86.4387C111.788 85.8621 112.568 85.5382 113.382 85.5382H150.139C150.953 85.5382 151.733 85.8621 152.309 86.4387C152.884 87.0152 153.208 87.7972 153.208 88.6126C153.208 89.428 152.884 90.21 152.309 90.7865C151.733 91.3631 150.953 91.687 150.139 91.687H113.382C112.569 91.687 111.789 91.3635 111.213 90.7877C110.638 90.2119 110.314 89.4274 110.313 88.6126ZM160.27 106.198C160.27 107.014 159.947 107.796 159.371 108.372C158.795 108.949 158.015 109.273 157.201 109.273H113.382C112.568 109.273 111.788 108.949 111.212 108.372C110.637 107.796 110.313 107.014 110.313 106.198C110.313 105.383 110.637 104.601 111.212 104.024C111.788 103.448 112.568 103.124 113.382 103.124H157.201C158.015 103.124 158.795 103.448 159.371 104.024C159.947 104.601 160.27 105.383 160.27 106.198ZM94.9241 136.867H58.8974C58.0835 136.867 57.3029 137.191 56.7273 137.767C56.1518 138.344 55.8284 139.126 55.8284 139.941V183.096C55.8284 183.911 56.1518 184.693 56.7273 185.27C57.3029 185.846 58.0835 186.17 58.8974 186.17H94.9241C95.738 186.17 96.5186 185.846 97.0942 185.27C97.6697 184.693 97.9931 183.911 97.9931 183.096V139.941C97.9931 139.126 97.6697 138.344 97.0942 137.767C96.5186 137.191 95.738 136.867 94.9241 136.867ZM91.8551 180.018H61.9664V143.016H91.8551V180.018ZM110.313 142.497C110.313 141.681 110.637 140.899 111.212 140.323C111.788 139.746 112.568 139.422 113.382 139.422H138.391C139.205 139.422 139.986 139.746 140.561 140.323C141.137 140.899 141.46 141.681 141.46 142.497C141.46 143.312 141.137 144.094 140.561 144.67C139.986 145.247 139.205 145.571 138.391 145.571H113.382C112.568 145.571 111.788 145.247 111.212 144.67C110.637 144.094 110.313 143.312 110.313 142.497ZM110.313 160.079C110.313 159.263 110.637 158.481 111.212 157.905C111.788 157.328 112.568 157.004 113.382 157.004H150.139C150.953 157.004 151.733 157.328 152.309 157.905C152.884 158.481 153.208 159.263 153.208 160.079C153.208 160.894 152.884 161.676 152.309 162.253C151.733 162.829 150.953 163.153 150.139 163.153H113.382C112.568 163.153 111.788 162.829 111.212 162.253C110.637 161.676 110.313 160.894 110.313 160.079ZM160.27 177.664C160.27 178.48 159.947 179.262 159.371 179.838C158.795 180.415 158.015 180.739 157.201 180.739H113.382C112.568 180.739 111.788 180.415 111.212 179.838C110.637 179.262 110.313 178.48 110.313 177.664C110.313 176.849 110.637 176.067 111.212 175.49C111.788 174.914 112.568 174.59 113.382 174.59H157.201C158.015 174.59 158.795 174.914 159.371 175.49C159.947 176.067 160.27 176.849 160.27 177.664ZM94.9241 208.333H58.8974C58.0835 208.333 57.3029 208.657 56.7273 209.234C56.1518 209.81 55.8284 210.592 55.8284 211.408V254.558C55.8284 254.962 55.9078 255.362 56.062 255.735C56.2163 256.108 56.4423 256.447 56.7273 256.732C57.0123 257.018 57.3506 257.244 57.723 257.399C58.0953 257.553 58.4944 257.633 58.8974 257.633H94.9241C95.3271 257.633 95.7262 257.553 96.0985 257.399C96.4709 257.244 96.8092 257.018 97.0942 256.732C97.3792 256.447 97.6052 256.108 97.7595 255.735C97.9137 255.362 97.9931 254.962 97.9931 254.558V211.408C97.9931 210.592 97.6697 209.81 97.0942 209.234C96.5186 208.657 95.738 208.333 94.9241 208.333ZM91.8551 251.484H61.9664V214.482H91.8551V251.484ZM65.015 232.156C64.7808 231.828 64.6135 231.456 64.5226 231.063C64.4318 230.669 64.4191 230.262 64.4855 229.864C64.5518 229.465 64.6958 229.084 64.9092 228.742C65.1227 228.399 65.4013 228.102 65.7294 227.868C66.0574 227.633 66.4283 227.465 66.821 227.374C67.2137 227.283 67.6204 227.271 68.0179 227.337C68.4155 227.404 68.7961 227.548 69.138 227.762C69.4799 227.975 69.7764 228.255 70.0106 228.583L75.0574 235.661L83.6438 220.607C84.0476 219.899 84.7156 219.38 85.5009 219.166C86.2863 218.951 87.1245 219.058 87.8313 219.462C88.5381 219.867 89.0555 220.536 89.2697 221.323C89.4839 222.11 89.3774 222.949 88.9736 223.657L78.0071 242.876C77.7515 243.323 77.3877 243.699 76.9492 243.969C76.5106 244.239 76.0113 244.394 75.4973 244.42H75.3404C74.8521 244.42 74.3709 244.303 73.9368 244.079C73.5026 243.855 73.1281 243.53 72.8443 243.132L65.015 232.156ZM110.313 213.963C110.313 213.147 110.637 212.365 111.212 211.789C111.788 211.212 112.568 210.888 113.382 210.888H138.391C139.205 210.888 139.986 211.212 140.561 211.789C141.137 212.365 141.46 213.147 141.46 213.963C141.46 214.778 141.137 215.56 140.561 216.137C139.986 216.713 139.205 217.037 138.391 217.037H113.382C112.568 217.037 111.788 216.713 111.212 216.137C110.637 215.56 110.313 214.778 110.313 213.963ZM110.313 231.545C110.313 230.729 110.637 229.948 111.212 229.371C111.788 228.794 112.568 228.47 113.382 228.47H150.139C150.542 228.47 150.941 228.55 151.313 228.704C151.686 228.859 152.024 229.085 152.309 229.371C152.594 229.656 152.82 229.995 152.974 230.368C153.128 230.741 153.208 231.141 153.208 231.545C153.208 231.949 153.128 232.348 152.974 232.721C152.82 233.094 152.594 233.433 152.309 233.719C152.024 234.004 151.686 234.231 151.313 234.385C150.941 234.54 150.542 234.619 150.139 234.619H113.382C112.568 234.619 111.788 234.295 111.212 233.719C110.637 233.142 110.313 232.36 110.313 231.545ZM160.27 249.13C160.27 249.946 159.947 250.728 159.371 251.304C158.795 251.881 158.015 252.205 157.201 252.205H113.382C112.568 252.205 111.788 251.881 111.212 251.304C110.637 250.728 110.313 249.946 110.313 249.13C110.313 248.315 110.637 247.533 111.212 246.956C111.788 246.38 112.568 246.056 113.382 246.056H157.201C158.015 246.056 158.795 246.38 159.371 246.956C159.947 247.533 160.27 248.315 160.27 249.13ZM67.1769 157.134C66.6726 156.558 66.4014 155.813 66.4166 155.047C66.4318 154.28 66.7323 153.547 67.2591 152.991C67.7859 152.435 68.5011 152.096 69.2644 152.041C70.0276 151.986 70.7839 152.219 71.3848 152.693L76.7965 157.817L81.9286 152.396C82.4888 151.805 83.2608 151.46 84.0745 151.439C84.8883 151.417 85.6772 151.72 86.2678 152.282C86.8584 152.843 87.2022 153.616 87.2236 154.431C87.245 155.247 86.9423 156.037 86.382 156.629L81.2466 162.053L86.6548 167.194C86.9472 167.472 87.1822 167.805 87.3462 168.174C87.5102 168.543 87.6 168.94 87.6106 169.344C87.6212 169.748 87.5524 170.149 87.408 170.526C87.2636 170.903 87.0465 171.248 86.7691 171.541C86.4916 171.834 86.1593 172.069 85.7911 172.234C85.4229 172.398 85.026 172.488 84.6231 172.499C84.2202 172.509 83.8191 172.44 83.4428 172.296C83.0665 172.151 82.7223 171.933 82.4298 171.656L77.0216 166.532L71.8895 171.953C71.3293 172.544 70.5573 172.889 69.7436 172.91C68.9298 172.932 68.1409 172.628 67.5503 172.067C66.9597 171.506 66.6159 170.733 66.5945 169.917C66.5731 169.102 66.8758 168.312 67.4361 167.72L72.5681 162.303L67.1769 157.134ZM254.693 48.9904C250.997 48.991 247.307 49.2995 243.661 49.9127V43.699C243.655 36.643 240.855 29.8776 235.876 24.887C230.897 19.8964 224.145 17.0881 217.101 17.0781H46.3759C39.3335 17.0872 32.5821 19.8937 27.6024 24.8822C22.6226 29.8707 19.821 36.634 19.812 43.6888V297.897C19.8183 304.954 22.6187 311.72 27.5988 316.71C32.5788 321.701 39.3317 324.509 46.3759 324.518H217.101C224.143 324.509 230.895 321.703 235.874 316.714C240.854 311.726 243.656 304.962 243.665 297.908V181.326C252.723 182.823 261.993 182.424 270.89 180.155C279.787 177.886 288.119 173.796 295.36 168.143C302.602 162.489 308.596 155.395 312.966 147.306C317.335 139.218 319.986 130.31 320.75 121.145C321.514 111.98 320.375 102.756 317.405 94.0534C314.435 85.3509 309.698 77.3588 303.493 70.5805C297.288 63.8022 289.749 58.3845 281.35 54.6687C272.952 50.953 263.874 49.0196 254.693 48.9904ZM217.101 318.369H46.3759C40.9614 318.36 35.7712 316.202 31.9426 312.366C28.1139 308.531 25.959 303.332 25.95 297.908V43.699C25.9563 38.2732 28.11 33.0713 31.939 29.2337C35.7679 25.3961 40.9596 23.236 46.3759 23.2269H217.101C222.515 23.236 227.706 25.3947 231.534 29.23C235.363 33.0654 237.518 38.2647 237.527 43.6888V51.2381C233.794 52.2387 230.157 53.5658 226.656 55.2041V43.699C226.656 42.8836 226.332 42.1016 225.757 41.5251C225.181 40.9485 224.401 40.6246 223.587 40.6246H39.8764C39.0625 40.6246 38.2819 40.9485 37.7063 41.5251C37.1308 42.1016 36.8074 42.8836 36.8074 43.699V279.085C36.8074 279.901 37.1308 280.683 37.7063 281.259C38.2819 281.836 39.0625 282.16 39.8764 282.16H223.583C224.397 282.16 225.178 281.836 225.753 281.259C226.329 280.683 226.652 279.901 226.652 279.085V189.245L237.523 182.925V297.897C237.517 303.322 235.364 308.524 231.536 312.361C227.707 316.199 222.517 318.359 217.101 318.369ZM198.769 203.25C199.25 203.624 199.831 203.846 200.438 203.888C201.045 203.93 201.651 203.79 202.179 203.486L220.501 192.835V276.011H42.9454V46.7973H220.514V58.5074C211.788 63.7442 204.378 70.9167 198.853 79.473C193.329 88.0292 189.838 97.7411 188.648 107.861C187.459 117.981 188.603 128.24 191.993 137.848C195.383 147.455 200.927 156.156 208.201 163.28L197.705 199.961C197.536 200.55 197.547 201.177 197.737 201.76C197.926 202.343 198.286 202.856 198.769 203.233V203.25ZM254.693 176.11C250.177 176.111 245.675 175.608 241.271 174.61H241.244C241.169 174.61 241.094 174.59 241.015 174.58C240.937 174.569 240.824 174.549 240.729 174.545H240.613H240.592C240.534 174.545 240.483 174.545 240.429 174.545C240.337 174.545 240.248 174.545 240.159 174.566L240.023 174.586C239.951 174.586 239.887 174.627 239.815 174.645C239.743 174.662 239.658 174.682 239.58 174.709L239.454 174.757C239.375 174.788 239.307 174.832 239.232 174.87C239.157 174.908 239.123 174.914 239.072 174.942L205.718 194.328L214.632 163.167C214.632 163.109 214.649 163.051 214.663 162.993C214.688 162.886 214.707 162.777 214.721 162.668C214.721 162.569 214.721 162.473 214.721 162.374C214.721 162.275 214.721 162.18 214.721 162.081C214.721 161.981 214.697 161.879 214.68 161.78C214.663 161.681 214.642 161.589 214.618 161.496C214.595 161.404 214.561 161.308 214.523 161.22C214.485 161.131 214.448 161.035 214.404 160.943C214.359 160.851 214.308 160.769 214.254 160.687C214.199 160.605 214.148 160.523 214.09 160.448C214.022 160.361 213.949 160.277 213.872 160.198C213.831 160.154 213.8 160.106 213.756 160.065C203.417 150.508 196.736 137.634 194.866 123.666C192.996 109.699 196.055 95.5159 203.515 83.5679C210.975 71.6199 222.366 62.6575 235.721 58.2292C249.076 53.8009 263.556 54.1849 276.659 59.3149C289.761 64.4448 300.663 73.9985 307.482 86.3251C314.3 98.6518 316.605 112.977 314.001 126.826C311.396 140.675 304.044 153.177 293.215 162.172C282.386 171.168 268.76 176.092 254.693 176.093V176.11ZM287.309 79.2186V103.151C287.309 113.167 282.072 121.55 275.132 123.49V152.051C275.132 152.867 274.809 153.648 274.233 154.225C273.658 154.802 272.877 155.126 272.063 155.126C271.249 155.126 270.469 154.802 269.893 154.225C269.318 153.648 268.994 152.867 268.994 152.051V123.469C262.055 121.529 256.817 113.146 256.817 103.131V79.2015C256.817 78.7978 256.897 78.398 257.051 78.025C257.205 77.652 257.431 77.3131 257.716 77.0276C258.001 76.7421 258.339 76.5156 258.712 76.3611C259.084 76.2066 259.483 76.1271 259.886 76.1271C260.289 76.1271 260.688 76.2066 261.061 76.3611C261.433 76.5156 261.771 76.7421 262.056 77.0276C262.341 77.3131 262.567 77.652 262.722 78.025C262.876 78.398 262.955 78.7978 262.955 79.2015V103.134C262.779 105.74 263.237 108.35 264.289 110.74C265.341 113.13 266.955 115.228 268.994 116.856V79.2015C268.994 78.3861 269.318 77.6041 269.893 77.0276C270.469 76.451 271.249 76.1271 272.063 76.1271C272.877 76.1271 273.658 76.451 274.233 77.0276C274.809 77.6041 275.132 78.3861 275.132 79.2015V116.856C277.171 115.228 278.786 113.13 279.838 110.74C280.89 108.35 281.347 105.74 281.171 103.134V79.2015C281.171 78.3861 281.495 77.6041 282.07 77.0276C282.646 76.451 283.427 76.1271 284.24 76.1271C285.054 76.1271 285.835 76.451 286.411 77.0276C286.986 77.6041 287.309 78.3861 287.309 79.2015V79.2186ZM237.336 113.198V79.5909C237.336 78.7755 237.013 77.9936 236.437 77.417C235.861 76.8404 235.081 76.5165 234.267 76.5165C233.453 76.5165 232.672 76.8404 232.097 77.417C231.521 77.9936 231.198 78.7755 231.198 79.5909V113.194C225.824 115.449 222.066 123.572 222.066 133.837C222.066 145.96 227.31 155.105 234.267 155.105C241.223 155.105 246.468 145.96 246.468 133.837C246.482 123.575 242.72 115.459 237.336 113.198ZM234.267 148.96C231.853 148.96 228.204 142.93 228.204 133.84C228.204 124.75 231.849 118.728 234.263 118.721C236.678 118.721 240.323 124.754 240.323 133.84C240.323 142.927 236.695 148.96 234.267 148.96ZM100.077 32.5184C100.077 31.7031 100.4 30.9211 100.975 30.3445C101.551 29.768 102.332 29.444 103.146 29.444H160.318C161.132 29.444 161.912 29.768 162.488 30.3445C163.063 30.9211 163.387 31.7031 163.387 32.5184C163.387 33.3338 163.063 34.1158 162.488 34.6924C161.912 35.2689 161.132 35.5928 160.318 35.5928H103.146C102.332 35.5928 101.551 35.2689 100.975 34.6924C100.4 34.1158 100.077 33.3338 100.077 32.5184Z" fill="black"/>
</svg>
